<?xml version="1.0" encoding="UTF-8"?>
<svg width="1200pt" height="1200pt" version="1.1" viewBox="0 0 1200 1200" xmlns="http://www.w3.org/2000/svg">
 <path d="m300.77 1125.7c-0.99219-5.3398-1.6641-10.934-1.707-16.992l-1.3945-488.79-33.133-19.281-31.613-18.395 1.3945 480.48c0.13672 21.602 7.0664 37.449 19.492 44.59l49.375 28.668c-0.58594-1.793-0.88672-3.8438-1.3516-5.75-0.36328-1.5117-0.77734-2.9609-1.0625-4.5391z"/>
 <path d="m307.57 471.15c0.41406-1.125 0.89453-2.2227 1.3359-3.3438 0.70703-1.7148 1.3867-3.418 2.1797-5.1758l-66.66-38.637c-3.1367 7.1797-5.7227 14.805-7.6523 22.688-0.5 1.9648-0.98047 4.0664-1.3086 5.9961-0.10156 0.71484-0.34375 1.4141-0.67188 2.0586-0.20703 1.8711-0.34375 3.0586-0.46484 4.1445-0.51562 2.4453-0.62109 3.5586-0.75781 4.6602-0.5 4.6445-0.84375 9.1758-0.84375 13.711l0.15625 88.648 49.203 28.633 15.562 9.0547-0.17969-80.578c0-2.3086 0.30078-4.793 0.44922-7.1797 0.15625-2.6719 0.15625-5.3086 0.48438-8.0195 0.035156-0.28516 0.12109-0.57031 0.16406-0.85547 0.30078-2.4766 0.69922-4.8477 1.1289-7.2812 0.79297-4.2305 1.3438-6.9961 2.0859-9.9453 0.015625-0.085938 0.050781-0.18359 0.078125-0.26953 0.14844-0.60547 0.33594-1.2031 0.5-1.8086 0.63672-2.6211 1.3281-5.2812 2.2148-7.9961 0.79688-2.7148 1.8477-5.6055 2.9961-8.5039z"/>
 <path d="m381.95 1147.8 510.09-294.49c41.617-24.031 75.379-82.48 75.242-130.3l-1.3633-480.67-348.22 201.04c-5.1367 2.9727-10.324 3.8164-14.941 2.5156-3.9102-1.1016-7.1875-3.7734-9.2188-7.5039l-19.836-36.613c-0.79297-1.4219-1.8086-2.3164-3.1367-2.6797-2.293-0.66406-5.4453 0.12891-8.8242 2.0859l-149.46 86.297c-11.047 6.3672-20.336 22.5-20.285 35.227l0.070312 28.52c0.035156 12.555-8.4961 27.332-19.406 33.633l-60.781 35.09 1.3945 488.77c0.015625 6.7695 0.94922 12.734 2.293 18.289 2.9727 12.078 8.7383 21.324 17.336 26.312l0.015624 0.007812c0.015626 0.007813 0.027344 0.023438 0.035157 0.035156 12.738 7.3164 30.133 5.332 48.996-5.5625zm82.238-438.17c0.035156-0.33594 0.12891-0.62891 0.20703-0.95703 0.19141-0.82031 0.5-1.5625 0.96484-2.2617 0.12109-0.19141 0.12109-0.42969 0.25781-0.60938l165.29-206.3c1.4648-1.8438 3.793-2.793 6.1367-2.6211l166.8 14.57c0.34375 0.03125 0.60156 0.26953 0.92969 0.34766 0.26562 0.058594 0.53516-0.070312 0.79297 0.023438 0.29297 0.10156 0.4375 0.40234 0.71484 0.53906 0.74219 0.37109 1.3438 0.83984 1.9141 1.4453 0.37891 0.40234 0.71484 0.75781 0.99219 1.2383 0.14844 0.25 0.41406 0.39453 0.53516 0.66406 0.23438 0.54688 0.13672 1.1289 0.22266 1.6992 0.070312 0.37891 0.34375 0.67578 0.34375 1.0664l0.17188 185.37c0 1.6133-0.55078 3.1719-1.5508 4.4219l-165.29 206.3c-0.11328 0.13672-0.28516 0.1875-0.39453 0.31641-0.13672 0.14453-0.19922 0.34375-0.34375 0.47656-0.13672 0.12891-0.37109 0.085938-0.51562 0.20312-1.25 0.97656-2.6875 1.6523-4.2578 1.6523-0.20703 0-0.41406-0.007813-0.62109-0.027344l-166.8-14.57c-3.6367-0.32031-6.4297-3.3711-6.4453-7.0234l-0.17188-185.37c-0.003906-0.21094 0.097656-0.39063 0.11719-0.59375z"/>
 <path d="m645.17 726.91v163.09l151.16-188.67-0.15625-162.81-117.32 146.37z"/>
 <path d="m631.04 902.41v-171.5l-126.34-10.789-26.504-2.2656 0.15234 171.21z"/>
 <path d="m634.95 717.07 154.5-192.75-149.88-13.098-154.65 193.03 110.88 9.4766z"/>
 <path d="m365.59 572.58c6.6016-3.8086 12.375-13.785 12.34-21.359l-0.070313-28.52c-0.050781-17.75 11.961-38.621 27.348-47.496l149.46-86.289c6.8086-3.957 13.578-5.1797 19.699-3.4648 5.0156 1.4062 9.082 4.6953 11.719 9.5234l19.852 36.637c1.3086 0.82031 2.7227 0.63672 4.6875-0.5l355.36-205.17-0.27734-88.707c-0.050781-21.578-7.0312-37.465-19.664-44.73-8.1875-4.6992-18.406-5.1523-29.582-2.293-6.2539 1.6211-12.719 3.9961-19.5 7.9453l-510 294.45c-0.17188 0.10156-0.34375 0.18359-0.52734 0.26562-3.457 2.0234-6.8242 4.4648-10.176 6.9648-1.7734 1.3203-3.543 2.6875-5.2812 4.1289-7.5898 6.3164-14.812 13.66-21.422 21.871-0.17969 0.25391-0.44922 0.50781-0.62891 0.76172-0.34375 0.40234-0.58594 0.73828-0.89453 1.1211-14.855 19.004-26.523 41.871-32.34 64.598 0 0.011719-0.007812 0.019532-0.007812 0.03125-1.457 5.6914-2.543 11.367-3.2227 16.973-0.007813 0.039063-0.015626 0.078126-0.015626 0.11719-0.21484 2.0195-0.22266 3.9102-0.36328 5.8828-0.17969 2.5664-0.47266 5.1641-0.46484 7.6797l0.22266 80.617zm535.93-410.47c10.012-5.7812 18.07-1 18.094 10.375 0.035156 11.512-7.9609 25.426-17.973 31.207-9.9531 5.75-18.121 1.1641-18.156-10.348-0.023437-11.375 8.0859-25.484 18.035-31.234zm-67.27 38.844c10.012-5.7812 18.062-1 18.094 10.375 0.027344 11.512-7.9688 25.426-17.984 31.207-9.9531 5.75-18.121 1.1641-18.148-10.348-0.03125-11.375 8.0781-25.484 18.039-31.234zm-67.277 38.844c10.012-5.7812 18.062-1 18.094 10.375 0.035157 11.512-7.9609 25.422-17.984 31.207-9.9531 5.75-18.113 1.1641-18.148-10.348-0.03125-11.375 8.0781-25.488 18.039-31.234z"/>
 <path d="m318.03 447.93c0.87891-1.6016 1.7227-3.1719 2.6523-4.6797 0.98047-2.0156 2.4805-4.4102 4.0508-6.8945 0.035156-0.054687 0.050781-0.085937 0.085937-0.14062 0.78516-1.25 1.5508-2.4883 2.3594-3.7188 1.4297-2.2148 2.7656-4.207 4.1172-6.043 0.90625-1.3281 2.0352-2.6445 3.0234-3.9688 2.1211-2.832 4.2812-5.5742 6.5312-8.2539 1.0078-1.2227 1.8281-2.3633 2.9883-3.6211 1.6719-2.0352 3.5859-4.1289 5.6875-6.2305 0.16406-0.16406 0.29297-0.27344 0.45703-0.43359 0.79297-0.80859 1.6289-1.5391 2.4297-2.3281 2.0234-1.9961 4.0664-4.0625 5.9883-5.7266 1.1211-0.97656 2.2734-1.7227 3.3945-2.6562 2.0859-1.7344 4.1875-3.3633 6.332-4.9453 1.3008-0.96484 2.543-2.1211 3.8672-3.0234 2.3945-1.6445 4.6367-3.1289 7.0312-4.4453 0.23437-0.15234 0.44922-0.27734 0.65625-0.39062 0.070312-0.035156 0.12891-0.089844 0.19141-0.12891l510-294.43c4.2227-2.4375 8.4023-4.3672 12.539-6.0547 0.64453-0.26562 1.2852-0.52734 1.9297-0.77344 3.9805-1.5195 7.918-2.7773 11.762-3.5898 0.12891-0.027343 0.26562-0.09375 0.39453-0.12109l-49.289-28.57c-12.82-7.4102-30.246-5.4648-49.117 5.4883l-510.02 294.44c-0.24219 0.13672-0.48438 0.25781-0.72266 0.37109-4.4648 2.6523-8.7891 5.6445-12.926 8.9609l-6.7539 5.7227c-7.6523 6.7969-14.699 14.59-20.852 23.043l-1.707 2.3789c-1.1016 1.5156-2.1875 3.0078-3.207 4.5742l-4.7891 7.4453c-1.1016 1.7305-2.1367 3.5859-3.1523 5.3867l-1.0703 1.9062c-0.96484 1.6211-1.7578 3.1641-2.5 4.6523l66.641 38.629z"/>
</svg>
