<?xml version="1.0" encoding="UTF-8"?>
<svg width="1200pt" height="1200pt" version="1.1" viewBox="0 0 1200 1200" xmlns="http://www.w3.org/2000/svg">
 <path d="m1039.2 361.04c-0.023437-0.16797-0.12109-0.30078-0.15625-0.48047-0.035156-0.16797 0.011719-0.32422-0.023437-0.49219-0.10938-0.44531-0.35938-0.78125-0.51563-1.1992-0.21484-0.55078-0.33594-1.1406-0.63672-1.6445-0.070313-0.13281-0.16797-0.23828-0.25391-0.37109-0.27734-0.44531-0.625-0.80469-0.94922-1.1992-0.44531-0.52734-0.86328-1.0312-1.3906-1.4766-0.070313-0.058594-0.14453-0.13281-0.22656-0.19141-0.34766-0.26562-0.74219-0.45703-1.1289-0.68359-0.64844-0.39453-1.2969-0.73047-2.0273-0.99609-0.085937-0.023438-0.15625-0.085938-0.23828-0.10938-0.035156-0.011719-0.058594-0.035157-0.097656-0.046875-0.38281-0.12109-0.79297-0.12109-1.1992-0.20312-0.45703-0.085938-0.86328-0.28906-1.332-0.3125-0.30078-0.011719-0.55078 0.085937-0.82812 0.097656-0.25391 0-0.50391-0.097656-0.75781-0.070313l-143.32 12.203c-126.45-164.62-302.1-312.28-303.87-313.77-0.34766-0.28906-0.80469-0.38281-1.1875-0.625-0.68359-0.45703-1.3672-0.86328-2.1602-1.1523-0.63672-0.22656-1.2734-0.32422-1.9453-0.43359-0.51563-0.085937-0.98438-0.32422-1.5234-0.33594h-0.20312c-0.25391 0-0.46875 0.12109-0.70703 0.14453-0.22656 0.011719-0.44531-0.085938-0.67188-0.046875-0.45703 0.058594-0.83984 0.32422-1.2734 0.44531-0.79297 0.20312-1.5352 0.40625-2.2422 0.76953-0.5625 0.28906-1.043 0.64844-1.5586 1.0312-0.66406 0.5-1.2539 1.0156-1.7812 1.6406-0.19141 0.22656-0.48047 0.35938-0.66016 0.60156-1.1992 1.6797-114.72 161.09-172.78 255.24-56.363-66.145-145.67-147.74-149.66-151.39-0.80469-0.73047-1.7031-1.2969-2.6523-1.7539-0.3125-0.15625-0.66016-0.22656-0.99609-0.34766-0.70703-0.25391-1.4141-0.45703-2.1484-0.5625-0.43359-0.058594-0.83984-0.085938-1.2734-0.097657-0.79297-0.023437-1.5703 0.058594-2.3516 0.21484-0.23828 0.046875-0.48047 0-0.71875 0.058594-0.097656 0.023438-0.15625 0.085938-0.25391 0.12109-0.12109 0.023437-0.25391 0.023437-0.35938 0.058594-0.98438 0.32422-1.8711 0.78125-2.7109 1.3438-0.15625 0.10937-0.26562 0.25391-0.42188 0.35937-0.74219 0.55078-1.4141 1.1992-1.9922 1.9336-0.21484 0.27734-0.39453 0.5625-0.58984 0.86328-0.42188 0.66016-0.76953 1.3438-1.043 2.0898-0.13281 0.33594-0.25391 0.66016-0.34766 1.0195-0.046874 0.21484-0.16797 0.39453-0.21484 0.61328l-101.95 506.23c-0.625 3.1094 0.13281 6.3359 2.0625 8.832 1.9453 2.5078 4.8711 4.0547 8.0391 4.2344l89.773 4.9453c8.5938 43.402 53.398 243.59 185.57 459.54 0.19141 0.3125 0.46875 0.5625 0.68359 0.85156 0.22656 0.28906 0.39453 0.63672 0.66016 0.91016 0.046875 0.058594 0.13281 0.070313 0.19141 0.13281 0.92578 0.94922 1.9922 1.6797 3.168 2.2305 0.25391 0.12109 0.50391 0.20312 0.75781 0.28906 1.2344 0.46875 2.5195 0.79297 3.8516 0.79297 0.74219 0 1.5-0.070313 2.2578-0.23828 18.84-3.9609 48.984-14.82 85.945-30.492 75.707-30.852 155.73-72.324 223.19-110.16 57.254-31.512 113.9-65.172 162.43-97.523 0.011719 0 0.058593-0.046874 0.070312-0.046874 0.023438-0.023438 0.046875-0.035157 0.070313-0.046876l0.035156-0.035156c0.46875-0.3125 0.91016-0.67188 1.3203-1.043 5.125-4.7539 126.09-117.52 180.95-236.45 0.74219-1.6328 1.0938-3.4062 0.99609-5.1953-5.3945-97.68-34.398-306.52-34.688-308.62zm-795.86 321.58c97.645-37.766 218.58-85.355 218.58-85.355 0.45703-0.17969 0.75781-0.55078 1.1758-0.78125l104.68-41.004-154.81 557c-119.94-203.95-161.43-388.57-169.62-429.86zm768.6-300.76-132.46 497.94c-45.18-55.344-134.26-163.8-201.27-245.32 28.211-21.395 61.285-49.008 96.336-78.277 79.336-66.262 168.23-140.42 237.39-174.35zm-147.09-7.0781c-26.82 30.035-135.59 152.94-200.88 242.38-40.836-49.668-70.559-85.777-71.387-86.785-0.13281-0.15625-0.30078-0.25391-0.43359-0.39453-0.22656-0.23828-0.46875-0.43359-0.70703-0.64844-0.75781-0.68359-1.5703-1.2461-2.4609-1.6914-0.26562-0.13281-0.50391-0.27734-0.76953-0.38281-1.1641-0.48047-2.375-0.75781-3.6367-0.80469-0.20312-0.011719-0.40625 0.035156-0.61328 0.035156-0.69531 0.011719-1.3906 0-2.0898 0.15625-0.40625 0.085938-0.75781 0.28906-1.1523 0.42188-0.19141 0.058594-0.38281 0.023438-0.5625 0.097656l-4.4023 1.7266 7.9844-446.93c47.086 41.207 179.64 161.39 281.11 292.82zm-480.44-41.855c65.258 83.219 115.16 217.85 117.71 224.79l-39.422 15.445c-20.137-36.527-101.77-185.54-189.98-358.04 34.441 33.258 80.859 79.867 111.7 117.81zm-157.24-76.934c3.9102 119 8.0039 321.82-5.3984 408.25l-75.984-4.1875z"/>
</svg>
